<svg width="207" height="249" viewBox="0 0 207 249" fill="none" xmlns="http://www.w3.org/2000/svg">
<g id="Logo-minimal">
<g id="Vector">
<path fill-rule="evenodd" clip-rule="evenodd" d="M105.468 125.334V218.193C105.468 219.338 105.392 220.45 105.247 221.529H179.452V125.334H105.468ZM53.0953 248.997H189.291C199.071 248.997 207 241.091 207 231.339V115.524C207 105.771 199.071 97.8657 189.291 97.8657H95.6292C85.9148 97.8657 77.9201 105.691 77.9201 115.509V216.911C77.5821 217.15 77.044 217.476 76.2169 217.872C72.5209 219.644 65.2806 221.445 52.9993 221.529H51.2053C41.2496 221.461 34.1824 219.572 30.1343 217.507C28.7611 216.806 27.9746 216.241 27.5476 215.869V104.989H0V217.285C0 229.622 9.26573 237.715 17.5857 241.96C26.4872 246.501 38.0988 248.915 51.0722 248.997C51.7521 249.001 52.4265 249.001 53.0953 248.997ZM27.0979 215.378C27.106 215.376 27.1521 215.429 27.2119 215.542C27.1197 215.437 27.0899 215.38 27.0979 215.378ZM78.4263 216.464C78.4352 216.466 78.4018 216.517 78.2992 216.612C78.366 216.51 78.4173 216.462 78.4263 216.464Z" fill="#026C69"/>
<path fill-rule="evenodd" clip-rule="evenodd" d="M47.2243 210.152V121.47H59.0304V210.152H47.2243Z" fill="#026C69"/>
<path fill-rule="evenodd" clip-rule="evenodd" d="M86.9715 134.026H159.595L134.842 153.742L159.206 174.051H86.9715V134.026ZM94.8422 141.874V166.203H137.52L122.405 153.604L137.131 141.874H94.8422Z" fill="#026C69"/>
<path d="M151.39 83.7472V59.0037C151.39 54.5514 147.075 51.3663 142.805 52.6673L105.427 64.0571C104.205 64.4295 102.901 64.4425 101.672 64.0946L62.8486 53.1073C58.607 51.9069 54.391 55.0843 54.391 59.4813V83.7829C54.391 86.449 55.9908 88.8541 58.4486 89.8166C58.7207 89.9231 59.0135 89.9663 59.3057 89.9729C93.0124 90.7408 124.371 91.044 146.496 89.9572C146.751 89.9447 147.002 89.9042 147.241 89.8149C149.751 88.8797 151.39 86.4494 151.39 83.7472Z" fill="#026C69"/>
<path d="M102.417 58.6516L31.3935 36.5376C25.2495 34.6245 25.1502 25.9884 31.2486 23.9354L101.316 0.348015C102.577 -0.0764755 103.937 -0.113512 105.219 0.241707L176.239 19.915C182.442 21.6336 182.813 30.2663 176.78 32.5078L106.716 58.5359C105.335 59.0488 103.823 59.0895 102.417 58.6516Z" fill="#026C69"/>
</g>
</g>
</svg>
